<svg xmlns="http://www.w3.org/2000/svg" width="400" height="450">
  <defs>
    <radialGradient id="zcab" cx="50%" cy="40%" r="70%">
      <stop offset="0%" stop-color="#1e1810"/>
      <stop offset="100%" stop-color="#0a0805"/>
    </radialGradient>
    <linearGradient id="wood" x1="0" y1="0" x2="1" y2="0">
      <stop offset="0%" stop-color="#a07838"/>
      <stop offset="30%" stop-color="#c8a060"/>
      <stop offset="70%" stop-color="#c8a060"/>
      <stop offset="100%" stop-color="#a07838"/>
    </linearGradient>
    <linearGradient id="woodside" x1="0" y1="0" x2="1" y2="0">
      <stop offset="0%" stop-color="#8a6828"/>
      <stop offset="100%" stop-color="#7a5a20"/>
    </linearGradient>
    <linearGradient id="woodtop" x1="0" y1="0" x2="0" y2="1">
      <stop offset="0%" stop-color="#d0a868"/>
      <stop offset="100%" stop-color="#b89050"/>
    </linearGradient>
    <linearGradient id="glass" x1="0" y1="0" x2="1" y2="1">
      <stop offset="0%" stop-color="rgba(180,210,220,0.12)"/>
      <stop offset="50%" stop-color="rgba(160,190,200,0.06)"/>
      <stop offset="100%" stop-color="rgba(180,210,220,0.1)"/>
    </linearGradient>
  </defs>
  <rect width="400" height="450" fill="url(#zcab)"/>
  <!-- Ambient light from above-left -->
  <ellipse cx="160" cy="80" rx="200" ry="120" fill="rgba(255,250,230,0.02)"/>
  <!-- Cabinet — 3D: front face + right side + top -->
  <!-- Right side face (perspective) -->
  <polygon points="370,20 395,10 395,440 370,430" fill="url(#woodside)" stroke="#7a5a20" stroke-width="1"/>
  <!-- Top face (perspective) -->
  <polygon points="30,20 370,20 395,10 55,10" fill="url(#woodtop)" stroke="#a07838" stroke-width="0.5"/>
  <!-- Front face -->
  <rect x="30" y="20" width="340" height="410" rx="2" fill="url(#wood)" stroke="#987038" stroke-width="2"/>
  <!-- Wood grain lines -->
  <g stroke="#b89048" stroke-width="0.3" opacity="0.3">
    <line x1="35" y1="50" x2="365" y2="50"/>
    <line x1="35" y1="130" x2="365" y2="130"/>
    <line x1="35" y1="280" x2="365" y2="280"/>
    <line x1="35" y1="380" x2="365" y2="380"/>
  </g>
  <!-- Upper glass doors — 3D inset -->
  <rect x="40" y="30" width="155" height="170" rx="3" fill="#a88040" stroke="#987038" stroke-width="2"/>
  <rect x="205" y="30" width="155" height="170" rx="3" fill="#a88040" stroke="#987038" stroke-width="2"/>
  <!-- Glass panes (recessed 3D) -->
  <rect x="46" y="36" width="143" height="158" fill="#1a1818" rx="2"/>
  <rect x="211" y="36" width="143" height="158" fill="#1a1818" rx="2"/>
  <rect x="48" y="38" width="139" height="154" fill="url(#glass)" rx="2"/>
  <rect x="213" y="38" width="139" height="154" fill="url(#glass)" rx="2"/>
  <!-- Glass reflections — diagonal streak -->
  <line x1="60" y1="190" x2="120" y2="42" stroke="rgba(255,255,255,0.06)" stroke-width="8"/>
  <line x1="225" y1="190" x2="285" y2="42" stroke="rgba(255,255,255,0.04)" stroke-width="6"/>
  <!-- Glass inner shadow (depth) -->
  <rect x="48" y="38" width="139" height="4" fill="rgba(0,0,0,0.15)" rx="1"/>
  <rect x="213" y="38" width="139" height="4" fill="rgba(0,0,0,0.15)" rx="1"/>
  <!-- Glass door handles — 3D cylindrical -->
  <rect x="178" y="98" width="7" height="22" rx="2.5" fill="#bbb" stroke="#999" stroke-width="0.5"/>
  <rect x="179" y="100" width="2" height="18" fill="rgba(255,255,255,0.15)" rx="1"/>
  <rect x="215" y="98" width="7" height="22" rx="2.5" fill="#bbb" stroke="#999" stroke-width="0.5"/>
  <rect x="216" y="100" width="2" height="18" fill="rgba(255,255,255,0.15)" rx="1"/>
  <!-- Divider shelf — 3D with thickness -->
  <rect x="35" y="212" width="330" height="4" fill="rgba(0,0,0,0.2)"/>
  <rect x="35" y="206" width="330" height="10" rx="1" fill="#a07838" stroke="#8a6828" stroke-width="0.5"/>
  <rect x="35" y="206" width="330" height="2" fill="rgba(255,255,255,0.06)"/>
  <!-- Lower doors — 3D inset panels -->
  <rect x="40" y="225" width="155" height="195" rx="3" fill="#b89050" stroke="#987038" stroke-width="1.5"/>
  <rect x="205" y="225" width="155" height="195" rx="3" fill="#b89050" stroke="#987038" stroke-width="1.5"/>
  <!-- Inset panel 3D (shadow on top/left, highlight on bottom/right) -->
  <rect x="52" y="237" width="131" height="171" fill="rgba(0,0,0,0.06)" rx="2"/>
  <line x1="52" y1="237" x2="183" y2="237" stroke="rgba(0,0,0,0.12)" stroke-width="1.5"/>
  <line x1="52" y1="237" x2="52" y2="408" stroke="rgba(0,0,0,0.1)" stroke-width="1.5"/>
  <line x1="183" y1="237" x2="183" y2="408" stroke="rgba(255,255,255,0.04)" stroke-width="1"/>
  <line x1="52" y1="408" x2="183" y2="408" stroke="rgba(255,255,255,0.04)" stroke-width="1"/>
  <rect x="217" y="237" width="131" height="171" fill="rgba(0,0,0,0.06)" rx="2"/>
  <line x1="217" y1="237" x2="348" y2="237" stroke="rgba(0,0,0,0.12)" stroke-width="1.5"/>
  <line x1="217" y1="237" x2="217" y2="408" stroke="rgba(0,0,0,0.1)" stroke-width="1.5"/>
  <line x1="348" y1="237" x2="348" y2="408" stroke="rgba(255,255,255,0.04)" stroke-width="1"/>
  <line x1="217" y1="408" x2="348" y2="408" stroke="rgba(255,255,255,0.04)" stroke-width="1"/>
  <!-- Door knobs — 3D spheres -->
  <circle cx="183" cy="325" r="7" fill="#888" stroke="#666" stroke-width="1"/>
  <circle cx="183" cy="325" r="5" fill="#bbb"/>
  <circle cx="181" cy="323" r="2" fill="rgba(255,255,255,0.3)"/>
  <circle cx="217" cy="325" r="7" fill="#888" stroke="#666" stroke-width="1"/>
  <circle cx="217" cy="325" r="5" fill="#bbb"/>
  <circle cx="215" cy="323" r="2" fill="rgba(255,255,255,0.3)"/>
  <!-- Keyhole — 3D recessed -->
  <ellipse cx="183" cy="348" rx="4" ry="6" fill="#333" stroke="#555" stroke-width="0.5"/>
  <ellipse cx="183" cy="347" rx="2.5" ry="4" fill="#222"/>
  <rect x="182" y="351" width="2" height="7" fill="#222"/>
  <!-- Bottom shadow -->
  <rect x="30" y="425" width="340" height="8" fill="rgba(0,0,0,0.15)" rx="1"/>
</svg>
