<svg xmlns="http://www.w3.org/2000/svg" width="160" height="195">
  <defs>
    <linearGradient id="coint" x1="0" y1="0" x2="0" y2="1">
      <stop offset="0%" stop-color="#3a2010"/>
      <stop offset="100%" stop-color="#2a1808"/>
    </linearGradient>
    <linearGradient id="doorface" x1="0" y1="0" x2="1" y2="0">
      <stop offset="0%" stop-color="#a87a38"/>
      <stop offset="100%" stop-color="#c89858"/>
    </linearGradient>
    <linearGradient id="doorinner" x1="0" y1="0" x2="1" y2="0">
      <stop offset="0%" stop-color="#987038"/>
      <stop offset="100%" stop-color="#8a6228"/>
    </linearGradient>
  </defs>
  <!-- Dark interior revealed -->
  <rect x="0" y="0" width="130" height="195" fill="url(#coint)" rx="1"/>
  <!-- Top shadow -->
  <rect x="0" y="0" width="130" height="6" fill="rgba(0,0,0,0.25)"/>
  <!-- Interior side wall shadow (left edge) -->
  <rect x="0" y="0" width="4" height="195" fill="rgba(0,0,0,0.15)"/>
  <!-- Interior shelf — 3D -->
  <rect x="4" y="85" width="126" height="4" fill="#5a3a18"/>
  <line x1="4" y1="85" x2="130" y2="85" stroke="rgba(255,255,255,0.04)" stroke-width="0.5"/>
  <!-- Bottom shelf area -->
  <rect x="4" y="89" width="126" height="106" fill="#2a1808"/>
  <!-- Right door swung open (perspective) -->
  <polygon points="130,0 160,5 160,190 130,195" fill="url(#doorface)" stroke="#987038" stroke-width="1"/>
  <polygon points="130,0 140,1 140,194 130,195" fill="url(#doorinner)"/>
  <!-- Door panel inset on open door -->
  <polygon points="134,12 156,16 156,180 134,184" fill="rgba(0,0,0,0.06)"/>
  <!-- Door knob on open door -->
  <circle cx="135" cy="95" r="4" fill="#999" stroke="#777" stroke-width="0.5"/>
  <circle cx="134" cy="94" r="2" fill="#bbb"/>
</svg>
