<svg xmlns="http://www.w3.org/2000/svg" width="330" height="426" viewBox="0 0 330 426">
  <defs>
    <linearGradient id="hallgrad" x1="0" y1="0" x2="0" y2="1">
      <stop offset="0%" stop-color="#fff4d8"/>
      <stop offset="50%" stop-color="#f0e0b8"/>
      <stop offset="100%" stop-color="#c8b488"/>
    </linearGradient>
    <radialGradient id="hallglow" cx="55%" cy="40%" r="60%">
      <stop offset="0%" stop-color="#fffbe8" stop-opacity="0.95"/>
      <stop offset="60%" stop-color="#f8e8c0" stop-opacity="0.35"/>
      <stop offset="100%" stop-color="#f8e8c0" stop-opacity="0"/>
    </radialGradient>
    <linearGradient id="openpanel" x1="0" y1="0" x2="1" y2="0">
      <stop offset="0%" stop-color="#3a1e08"/>
      <stop offset="60%" stop-color="#6a3a18"/>
      <stop offset="100%" stop-color="#a06a38"/>
    </linearGradient>
    <linearGradient id="wallgrad" x1="0" y1="0" x2="1" y2="0">
      <stop offset="0%" stop-color="#b8a888"/>
      <stop offset="100%" stop-color="#8a7858"/>
    </linearGradient>
    <linearGradient id="floorgrad" x1="0" y1="0" x2="0" y2="1">
      <stop offset="0%" stop-color="#806848"/>
      <stop offset="100%" stop-color="#c0a878"/>
    </linearGradient>
    <radialGradient id="brassOpen" cx="35%" cy="35%" r="65%">
      <stop offset="0%"  stop-color="#fff4c8"/>
      <stop offset="55%" stop-color="#c89030"/>
      <stop offset="100%" stop-color="#6a4818"/>
    </radialGradient>
  </defs>
  <!-- Hallway background (bright beyond the door) -->
  <rect x="0" y="0" width="330" height="426" fill="url(#hallgrad)"/>
  <!-- Warm hallway glow -->
  <rect x="0" y="0" width="330" height="426" fill="url(#hallglow)"/>
  <!-- Ceiling wedge (perspective) -->
  <polygon points="80,0 250,0 230,55 100,55" fill="#a89878" opacity="0.7"/>
  <!-- Left hallway wall (vanishing toward center) -->
  <polygon points="80,55 80,380 95,375 95,65" fill="url(#wallgrad)" opacity="0.85"/>
  <!-- Right hallway wall -->
  <polygon points="250,55 250,380 235,375 235,65" fill="url(#wallgrad)" opacity="0.85"/>
  <!-- Hallway floor perspective -->
  <polygon points="80,380 250,380 275,426 55,426" fill="url(#floorgrad)"/>
  <line x1="80" y1="380" x2="55" y2="426" stroke="#5a4828" stroke-width="0.8" opacity="0.5"/>
  <line x1="250" y1="380" x2="275" y2="426" stroke="#5a4828" stroke-width="0.8" opacity="0.5"/>
  <line x1="165" y1="380" x2="165" y2="426" stroke="#5a4828" stroke-width="0.5" opacity="0.3"/>
  <!-- Distant wall with a picture frame -->
  <rect x="80" y="55" width="170" height="325" fill="#c8b898" opacity="0.5"/>
  <rect x="135" y="130" width="60" height="85" fill="#5a4828" stroke="#8a7858" stroke-width="1.5" opacity="0.7"/>
  <rect x="140" y="135" width="50" height="75" fill="#a89878" opacity="0.8"/>
  <!-- Ambient light patch on floor -->
  <ellipse cx="165" cy="400" rx="90" ry="14" fill="rgba(255,240,200,0.35)"/>
  <!-- Door swung open — foreshortened on left side -->
  <polygon points="0,0 95,35 95,395 0,426" fill="url(#openpanel)" stroke="#2a1408" stroke-width="1.5"/>
  <!-- Open door wood grain -->
  <g stroke="#4a2810" stroke-width="0.5" opacity="0.4">
    <line x1="15" y1="5" x2="22" y2="420"/>
    <line x1="38" y1="12" x2="42" y2="415"/>
    <line x1="62" y1="22" x2="65" y2="410"/>
  </g>
  <!-- Door edge (right edge of open door — catches light) -->
  <polygon points="95,35 95,395 91,390 91,40" fill="#d8b888"/>
  <!-- Inner panel inset on open door -->
  <polygon points="15,40 80,60 80,200 15,205" fill="#5a3018" stroke="#3a1e08" stroke-width="0.8" opacity="0.7"/>
  <polygon points="15,220 80,215 80,370 15,385" fill="#5a3018" stroke="#3a1e08" stroke-width="0.8" opacity="0.7"/>
  <!-- Card reader on open door (moved with door) -->
  <rect x="30" y="155" width="22" height="34" rx="2" fill="#2a2a2a" stroke="#444" stroke-width="0.5"/>
  <rect x="32" y="159" width="18" height="5" rx="1" fill="#0a0a0a"/>
  <rect x="33" y="168" width="16" height="3" rx="0.8" fill="#0a0a0a"/>
  <!-- Green LED (unlocked) -->
  <circle cx="41" cy="180" r="3.5" fill="#050"/>
  <circle cx="41" cy="180" r="2.2" fill="#0c8"/>
  <circle cx="40.5" cy="179" r="0.8" fill="#afe"/>
  <circle cx="41" cy="180" r="5.5" fill="rgba(0,220,120,0.18)"/>
  <!-- Inner handle on open door — brass knob + escutcheon -->
  <rect x="6" y="200" width="20" height="32" rx="2" fill="url(#brassOpen)" stroke="#6a4818" stroke-width="0.5"/>
  <rect x="7" y="201" width="18" height="2" fill="rgba(255,248,200,0.55)" rx="1"/>
  <circle cx="16" cy="215" r="6" fill="url(#brassOpen)" stroke="#6a4818" stroke-width="0.6"/>
  <circle cx="14" cy="213" r="2" fill="#fff4c8" opacity="0.85"/>
  <!-- Door frame inner reveal (wood thickness visible where door swung open) -->
  <polygon points="95,35 100,30 100,400 95,395" fill="#8a6838"/>
  <!-- Soft shadow cast by door onto floor -->
  <polygon points="0,410 95,395 95,410 0,426" fill="rgba(0,0,0,0.35)"/>
</svg>
