<svg xmlns="http://www.w3.org/2000/svg" width="320" height="100">
  <defs>
    <linearGradient id="dw" x1="0" y1="0" x2="0" y2="1">
      <stop offset="0%" stop-color="#c8a060"/>
      <stop offset="100%" stop-color="#b89050"/>
    </linearGradient>
    <linearGradient id="dwinner" x1="0" y1="0" x2="0" y2="1">
      <stop offset="0%" stop-color="#6a4a22"/>
      <stop offset="100%" stop-color="#8a6a30"/>
    </linearGradient>
    <radialGradient id="dwbrass" cx="35%" cy="35%" r="65%">
      <stop offset="0%"  stop-color="#fff4c8"/>
      <stop offset="55%" stop-color="#c89030"/>
      <stop offset="100%" stop-color="#6a4818"/>
    </radialGradient>
  </defs>
  <!-- Drawer front face -->
  <rect x="0" y="0" width="320" height="90" rx="3" fill="url(#dw)" stroke="#987038" stroke-width="1.5"/>
  <!-- 3D drawer walls (visible interior sides) -->
  <polygon points="8,6 20,0 300,0 312,6 312,78 8,78" fill="url(#dwinner)"/>
  <!-- Inner shadow at top edge -->
  <rect x="8" y="6" width="304" height="5" fill="rgba(0,0,0,0.2)"/>
  <!-- Left/right inner wall shadow -->
  <rect x="8" y="6" width="4" height="72" fill="rgba(0,0,0,0.12)"/>
  <rect x="308" y="6" width="4" height="72" fill="rgba(0,0,0,0.08)"/>
  <!-- Bottom of drawer -->
  <rect x="12" y="11" width="296" height="67" fill="#7a5a28" rx="1"/>
  <!-- Wood grain on bottom -->
  <line x1="15" y1="30" x2="305" y2="30" stroke="#6a4a22" stroke-width="0.5" opacity="0.3"/>
  <line x1="15" y1="55" x2="305" y2="55" stroke="#6a4a22" stroke-width="0.5" opacity="0.3"/>
  <!-- Paper inside — 3D with slight shadow -->
  <ellipse cx="162" cy="52" rx="82" ry="6" fill="rgba(0,0,0,0.08)"/>
  <rect x="80" y="15" width="160" height="60" fill="#f0e8d0" rx="2" transform="rotate(-3 160 45)"/>
  <rect x="82" y="17" width="156" height="56" fill="none" stroke="#d0c0a0" stroke-width="0.5" rx="1" transform="rotate(-3 160 45)"/>
  <!-- Paper fold crease -->
  <line x1="160" y1="18" x2="160" y2="73" stroke="#d8d0b8" stroke-width="0.5" transform="rotate(-3 160 45)"/>
  <text x="160" y="42" text-anchor="middle" fill="#333" font-size="22" font-weight="bold" font-family="serif" transform="rotate(-3 160 45)">T A K I</text>
  <text x="160" y="60" text-anchor="middle" fill="#888" font-size="9" font-family="serif" transform="rotate(-3 160 45)">password?</text>
  <!-- Drawer handle — brass arc -->
  <rect x="138" y="87" width="44" height="9" rx="4" fill="url(#dwbrass)" stroke="#6a4818" stroke-width="0.5"/>
  <rect x="140" y="88" width="40" height="3" fill="rgba(255,248,220,0.55)" rx="2"/>
</svg>
