<svg xmlns="http://www.w3.org/2000/svg" width="80" height="50">
  <defs>
    <linearGradient id="kc" x1="0" y1="0" x2="0.3" y2="1">
      <stop offset="0%" stop-color="#eef0f4"/>
      <stop offset="40%" stop-color="#dce0e8"/>
      <stop offset="100%" stop-color="#c0c8d8"/>
    </linearGradient>
    <linearGradient id="chip3d" x1="0" y1="0" x2="1" y2="1">
      <stop offset="0%" stop-color="#e0c060"/>
      <stop offset="50%" stop-color="#c4a35a"/>
      <stop offset="100%" stop-color="#a88838"/>
    </linearGradient>
  </defs>
  <!-- Card shadow -->
  <rect x="4" y="5" width="74" height="44" rx="4" fill="rgba(0,0,0,0.25)"/>
  <!-- Card body — 3D -->
  <rect x="2" y="2" width="76" height="46" rx="4" fill="url(#kc)" stroke="#a0a8b8" stroke-width="1"/>
  <!-- Top edge highlight -->
  <rect x="4" y="3" width="72" height="2" rx="1" fill="rgba(255,255,255,0.3)"/>
  <!-- EMV Chip — 3D gold -->
  <rect x="8" y="14" width="30" height="22" rx="2.5" fill="url(#chip3d)" stroke="#a88838" stroke-width="0.5"/>
  <!-- Chip circuit lines -->
  <rect x="10" y="16" width="26" height="18" rx="1" fill="rgba(255,255,255,0.08)"/>
  <line x1="23" y1="16" x2="23" y2="34" stroke="#b89848" stroke-width="0.5" opacity="0.6"/>
  <line x1="10" y1="25" x2="36" y2="25" stroke="#b89848" stroke-width="0.5" opacity="0.6"/>
  <rect x="14" y="19" width="8" height="5" rx="0.5" fill="rgba(255,255,255,0.06)"/>
  <rect x="25" y="19" width="8" height="5" rx="0.5" fill="rgba(255,255,255,0.06)"/>
  <rect x="14" y="27" width="8" height="4" rx="0.5" fill="rgba(255,255,255,0.06)"/>
  <rect x="25" y="27" width="8" height="4" rx="0.5" fill="rgba(255,255,255,0.06)"/>
  <!-- Chip highlight -->
  <line x1="10" y1="15" x2="36" y2="15" stroke="rgba(255,255,200,0.3)" stroke-width="0.5"/>
  <!-- Magnetic strip lines -->
  <rect x="45" y="20" width="28" height="3" rx="1" fill="#8a8a90"/>
  <rect x="45" y="20" width="28" height="1" rx="0.5" fill="rgba(255,255,255,0.1)"/>
  <rect x="45" y="26" width="20" height="3" rx="1" fill="#aaa"/>
  <text x="55" y="42" text-anchor="middle" fill="#8888aa" font-size="6" font-family="sans-serif">ACCESS</text>
  <!-- Bottom right corner notch -->
  <polygon points="72,44 76,40 76,44" fill="#b0b8c8"/>
</svg>
