<svg xmlns="http://www.w3.org/2000/svg" width="160" height="100">
  <defs>
    <linearGradient id="lbmetal" x1="0" y1="0" x2="0" y2="1">
      <stop offset="0%" stop-color="#777"/>
      <stop offset="40%" stop-color="#666"/>
      <stop offset="100%" stop-color="#4a4a4a"/>
    </linearGradient>
    <linearGradient id="lbside" x1="0" y1="0" x2="1" y2="0">
      <stop offset="0%" stop-color="#555"/>
      <stop offset="100%" stop-color="#3a3a3a"/>
    </linearGradient>
  </defs>
  <!-- Dark cabinet interior behind glass -->
  <rect width="160" height="100" fill="#1a1410" rx="2"/>
  <!-- Shelf inside -->
  <rect x="0" y="78" width="160" height="4" fill="#5a3a18"/>
  <line x1="0" y1="78" x2="160" y2="78" stroke="rgba(255,255,255,0.04)" stroke-width="0.5"/>
  <!-- Lockbox shadow on shelf -->
  <ellipse cx="82" cy="79" rx="52" ry="4" fill="rgba(0,0,0,0.3)"/>
  <!-- Lockbox — 3D: front + right side + top -->
  <!-- Right side -->
  <polygon points="130,25 140,20 140,78 130,80" fill="url(#lbside)" stroke="#3a3a3a" stroke-width="0.5"/>
  <!-- Top -->
  <polygon points="30,25 130,25 140,20 40,20" fill="#777" stroke="#555" stroke-width="0.3"/>
  <!-- Front face -->
  <rect x="30" y="25" width="100" height="55" rx="3" fill="url(#lbmetal)" stroke="#444" stroke-width="1"/>
  <rect x="34" y="29" width="92" height="47" rx="2" fill="#4a4a4a"/>
  <!-- Keypad recessed -->
  <rect x="53" y="36" width="54" height="30" rx="2" fill="#2a2a2a" stroke="#444" stroke-width="0.5"/>
  <rect x="58" y="40" width="44" height="9" rx="1" fill="#1a1a1a"/>
  <text x="80" y="48" text-anchor="middle" fill="#4a4" font-size="5" font-family="monospace">- - - -</text>
  <!-- Tiny buttons -->
  <g fill="#3a3a3a" stroke="#444" stroke-width="0.3">
    <rect x="58" y="52" width="10" height="5" rx="1"/><rect x="70" y="52" width="10" height="5" rx="1"/>
    <rect x="82" y="52" width="10" height="5" rx="1"/><rect x="94" y="52" width="10" height="5" rx="1"/>
  </g>
  <!-- Hasp — 3D -->
  <rect x="70" y="20" width="20" height="7" rx="1.5" fill="#555"/>
  <path d="M74,22 L74,14 Q80,8 86,14 L86,22" fill="none" stroke="#888" stroke-width="2.5"/>
  <path d="M75,21 L75,15 Q80,10 85,15 L85,21" fill="none" stroke="#666" stroke-width="1"/>
  <!-- LED -->
  <circle cx="80" cy="68" r="2" fill="#600"/>
  <circle cx="80" cy="68" r="4" fill="rgba(150,0,0,0.1)"/>
  <!-- Glass overlay — reflections and frost -->
  <rect width="160" height="100" fill="rgba(180,200,220,0.04)" rx="2"/>
  <!-- Glass reflection streak -->
  <line x1="10" y1="95" x2="60" y2="5" stroke="rgba(255,255,255,0.06)" stroke-width="6"/>
  <line x1="100" y1="95" x2="140" y2="15" stroke="rgba(255,255,255,0.03)" stroke-width="4"/>
</svg>
