<svg xmlns="http://www.w3.org/2000/svg" width="400" height="400">
  <defs>
    <radialGradient id="zpbg" cx="50%" cy="35%" r="65%">
      <stop offset="0%" stop-color="#2a2a20"/>
      <stop offset="100%" stop-color="#0e0e0a"/>
    </radialGradient>
    <radialGradient id="soil" cx="45%" cy="45%" r="55%">
      <stop offset="0%" stop-color="#5a4828"/>
      <stop offset="100%" stop-color="#3a2818"/>
    </radialGradient>
    <linearGradient id="potside" x1="0" y1="0" x2="1" y2="0">
      <stop offset="0%" stop-color="#1a1a1a"/>
      <stop offset="40%" stop-color="#3a3a38"/>
      <stop offset="60%" stop-color="#333330"/>
      <stop offset="100%" stop-color="#1a1a1a"/>
    </linearGradient>
    <linearGradient id="potrim" x1="0" y1="0" x2="0" y2="1">
      <stop offset="0%" stop-color="#555"/>
      <stop offset="50%" stop-color="#3a3a3a"/>
      <stop offset="100%" stop-color="#2a2a2a"/>
    </linearGradient>
    <radialGradient id="potinner" cx="50%" cy="30%" r="60%">
      <stop offset="0%" stop-color="#2a2420"/>
      <stop offset="100%" stop-color="#1a1410"/>
    </radialGradient>
    <linearGradient id="highlight" x1="0" y1="0" x2="1" y2="1">
      <stop offset="0%" stop-color="rgba(255,255,240,0.08)"/>
      <stop offset="100%" stop-color="rgba(255,255,240,0)"/>
    </linearGradient>
  </defs>
  <rect width="400" height="400" fill="url(#zpbg)"/>
  <!-- Ambient light spot -->
  <ellipse cx="180" cy="120" rx="160" ry="100" fill="rgba(255,250,220,0.03)"/>
  <!-- Pot body — 3D tapered form -->
  <path d="M85,370 Q90,390 310,390 Q315,370 315,370 L290,175 L110,175 Z" fill="url(#potside)" stroke="#444" stroke-width="1"/>
  <!-- Pot left shadow edge -->
  <path d="M85,370 L110,175 L130,175 L100,370 Z" fill="rgba(0,0,0,0.15)"/>
  <!-- Pot right highlight edge -->
  <path d="M290,175 L315,370 L300,370 L278,175 Z" fill="rgba(255,255,255,0.03)"/>
  <!-- Pot bottom curve -->
  <ellipse cx="200" cy="380" rx="115" ry="16" fill="#1a1a18"/>
  <!-- Pot rim — thick 3D torus -->
  <ellipse cx="200" cy="172" rx="105" ry="32" fill="url(#potrim)" stroke="#555" stroke-width="1"/>
  <ellipse cx="200" cy="168" rx="100" ry="29" fill="#3a3a38"/>
  <ellipse cx="200" cy="165" rx="96" ry="27" fill="#333330" stroke="#444" stroke-width="0.5"/>
  <!-- Rim highlight -->
  <path d="M110,160 Q200,138 290,160" fill="none" stroke="rgba(255,255,255,0.1)" stroke-width="2"/>
  <!-- Inner pot wall visible (dark cavity) -->
  <ellipse cx="200" cy="168" rx="88" ry="24" fill="url(#potinner)"/>
  <!-- Inner shadow ring -->
  <ellipse cx="200" cy="170" rx="86" ry="22" fill="none" stroke="rgba(0,0,0,0.3)" stroke-width="4"/>
  <!-- Soil surface — slightly sunken -->
  <ellipse cx="200" cy="172" rx="80" ry="18" fill="url(#soil)"/>
  <!-- Soil texture — pebbles and clumps -->
  <circle cx="170" cy="170" r="4" fill="#5a4828" opacity="0.5"/>
  <circle cx="215" cy="175" r="5" fill="#4a3818" opacity="0.4"/>
  <circle cx="245" cy="171" r="3" fill="#5a4828" opacity="0.5"/>
  <circle cx="155" cy="174" r="2.5" fill="#4a3818" opacity="0.4"/>
  <circle cx="190" cy="168" r="2" fill="#6a5838" opacity="0.3"/>
  <circle cx="230" cy="168" r="3" fill="#4a3818" opacity="0.3"/>
  <ellipse cx="180" cy="173" rx="6" ry="2" fill="#3a2818" opacity="0.3"/>
  <!-- Disturbed soil — clue area -->
  <ellipse cx="225" cy="173" rx="22" ry="7" fill="#5a4020" opacity="0.45"/>
  <ellipse cx="228" cy="174" rx="15" ry="4" fill="#6a5030" opacity="0.3"/>
  <!-- Fern fronds — lush 3D arching -->
  <path d="M200,160 Q190,90 140,20" fill="none" stroke="#1a6a1a" stroke-width="5"/>
  <path d="M200,160 Q210,80 260,15" fill="none" stroke="#1a6a1a" stroke-width="5"/>
  <path d="M200,160 Q195,100 145,40" fill="none" stroke="#2a7a2a" stroke-width="4"/>
  <path d="M200,160 Q205,90 255,30" fill="none" stroke="#2a7a2a" stroke-width="4"/>
  <path d="M200,160 Q180,110 120,55" fill="none" stroke="#3a8a3a" stroke-width="3"/>
  <path d="M200,160 Q220,100 280,45" fill="none" stroke="#3a8a3a" stroke-width="3"/>
  <path d="M200,160 Q175,125 110,80" fill="none" stroke="#4a9a4a" stroke-width="2.5"/>
  <path d="M200,160 Q225,115 290,70" fill="none" stroke="#4a9a4a" stroke-width="2.5"/>
  <!-- Leaf frills along fronds -->
  <g stroke="#5aaa5a" stroke-width="1.2" fill="none">
    <path d="M165,60 L155,52 M165,60 L173,54"/>
    <path d="M235,45 L227,37 M235,45 L243,39"/>
    <path d="M145,40 L137,33 M145,40 L152,34"/>
    <path d="M255,30 L248,22 M255,30 L263,24"/>
    <path d="M130,70 L120,64 M130,70 L136,62"/>
    <path d="M270,55 L278,48 M270,55 L264,47"/>
    <path d="M150,90 L140,85 M150,90 L155,82"/>
    <path d="M250,75 L258,68 M250,75 L244,67"/>
  </g>
  <!-- Smaller leaves on inner fronds -->
  <g stroke="#6aba6a" stroke-width="0.8" fill="none" opacity="0.6">
    <path d="M175,100 L168,95 M175,100 L180,93"/>
    <path d="M225,90 L232,84 M225,90 L219,83"/>
  </g>
  <!-- Leaf drop shadow on soil -->
  <ellipse cx="200" cy="172" rx="40" ry="8" fill="rgba(0,0,0,0.15)"/>
</svg>
