<svg xmlns="http://www.w3.org/2000/svg" width="400" height="400">
  <defs>
    <radialGradient id="zpbg" cx="50%" cy="35%" r="65%">
      <stop offset="0%" stop-color="#2a2a20"/>
      <stop offset="100%" stop-color="#0e0e0a"/>
    </radialGradient>
    <radialGradient id="soil" cx="45%" cy="45%" r="55%">
      <stop offset="0%" stop-color="#5a4828"/>
      <stop offset="100%" stop-color="#3a2818"/>
    </radialGradient>
    <linearGradient id="potside" x1="0" y1="0" x2="1" y2="0">
      <stop offset="0%" stop-color="#1a1a1a"/>
      <stop offset="40%" stop-color="#3a3a38"/>
      <stop offset="60%" stop-color="#333330"/>
      <stop offset="100%" stop-color="#1a1a1a"/>
    </linearGradient>
    <linearGradient id="potrim" x1="0" y1="0" x2="0" y2="1">
      <stop offset="0%" stop-color="#555"/>
      <stop offset="50%" stop-color="#3a3a3a"/>
      <stop offset="100%" stop-color="#2a2a2a"/>
    </linearGradient>
    <radialGradient id="potinner" cx="50%" cy="30%" r="60%">
      <stop offset="0%" stop-color="#2a2420"/>
      <stop offset="100%" stop-color="#1a1410"/>
    </radialGradient>
    <linearGradient id="bladeDark" x1="0" y1="0" x2="0" y2="1">
      <stop offset="0%"  stop-color="#1a4a1e"/>
      <stop offset="100%" stop-color="#0e2e10"/>
    </linearGradient>
    <linearGradient id="bladeMid" x1="0" y1="0" x2="0" y2="1">
      <stop offset="0%"  stop-color="#2e6a32"/>
      <stop offset="100%" stop-color="#1a4a1e"/>
    </linearGradient>
    <linearGradient id="bladeLight" x1="0" y1="0" x2="0" y2="1">
      <stop offset="0%"  stop-color="#4a8a4a"/>
      <stop offset="100%" stop-color="#2e6a32"/>
    </linearGradient>
  </defs>
  <rect width="400" height="400" fill="url(#zpbg)"/>
  <!-- Ambient light spot -->
  <ellipse cx="180" cy="120" rx="160" ry="100" fill="rgba(255,250,220,0.03)"/>

  <!-- ===== BACK ROW BLADES (darkest, tallest) ===== -->
  <g stroke="#0a200c" stroke-width="0.5">
    <path d="M195,165 Q188,80 184,15  Q200,12 206,80  Q204,150 205,165 Z" fill="url(#bladeDark)"/>
    <path d="M210,165 Q220,90 232,25  Q248,28 240,95  Q224,155 220,165 Z" fill="url(#bladeDark)"/>
    <path d="M180,165 Q170,95 152,30  Q138,38 156,100 Q174,158 175,165 Z" fill="url(#bladeDark)"/>
    <path d="M225,165 Q244,100 268,40 Q280,52 256,108 Q235,158 232,165 Z" fill="url(#bladeDark)"/>
    <path d="M165,165 Q150,110 122,55 Q112,68 138,118 Q160,158 162,165 Z" fill="url(#bladeDark)"/>
  </g>

  <!-- ===== MIDDLE BLADES ===== -->
  <g stroke="#0e2e10" stroke-width="0.5">
    <path d="M200,165 Q198,90 196,35  Q210,32 212,90  Q208,155 207,165 Z" fill="url(#bladeMid)"/>
    <path d="M188,165 Q180,100 168,50 Q156,58 174,108 Q182,158 184,165 Z" fill="url(#bladeMid)"/>
    <path d="M218,165 Q230,105 246,55 Q258,66 240,114 Q226,158 224,165 Z" fill="url(#bladeMid)"/>
    <path d="M172,165 Q160,118 138,80 Q128,90 148,128 Q166,160 168,165 Z" fill="url(#bladeMid)"/>
    <path d="M232,165 Q250,118 274,82 Q282,94 258,130 Q238,160 236,165 Z" fill="url(#bladeMid)"/>
  </g>

  <!-- Variegation stripes on middle blades -->
  <g fill="rgba(180,210,140,0.35)">
    <path d="M198,160 Q198,100 197,50 L201,50 Q201,100 201,160 Z"/>
    <path d="M186,162 Q178,110 170,65 L173,62 Q181,108 188,162 Z"/>
    <path d="M220,162 Q230,110 242,65 L245,68 Q234,112 222,162 Z"/>
  </g>

  <!-- ===== FRONT BLADES (lightest, shortest) ===== -->
  <g stroke="#1a4a1e" stroke-width="0.5">
    <path d="M205,168 Q210,108 218,65  Q230,72 222,118 Q214,162 213,168 Z" fill="url(#bladeLight)"/>
    <path d="M193,168 Q188,112 178,72 Q166,82 180,122 Q189,162 191,168 Z" fill="url(#bladeLight)"/>
    <path d="M180,168 Q170,128 152,98 Q142,108 162,138 Q174,164 176,168 Z" fill="url(#bladeLight)"/>
    <path d="M222,168 Q236,128 254,100 Q262,112 244,140 Q228,164 226,168 Z" fill="url(#bladeLight)"/>
    <path d="M210,168 Q218,130 232,108 Q240,118 226,140 Q214,164 213,168 Z" fill="url(#bladeLight)"/>
    <path d="M188,168 Q180,138 162,118 Q156,128 172,148 Q184,166 186,168 Z" fill="url(#bladeLight)"/>
  </g>

  <!-- Front blade highlights -->
  <g fill="rgba(180,220,150,0.5)">
    <path d="M204,165 Q208,115 215,75 L218,78 Q210,118 207,165 Z"/>
    <path d="M194,165 Q190,118 182,80 L185,80 Q193,118 197,165 Z"/>
  </g>

  <!-- ===== POT ===== -->
  <!-- Pot body — 3D tapered form -->
  <path d="M85,370 Q90,390 310,390 Q315,370 315,370 L290,175 L110,175 Z" fill="url(#potside)" stroke="#444" stroke-width="1"/>
  <!-- Pot left shadow edge -->
  <path d="M85,370 L110,175 L130,175 L100,370 Z" fill="rgba(0,0,0,0.15)"/>
  <!-- Pot right highlight edge -->
  <path d="M290,175 L315,370 L300,370 L278,175 Z" fill="rgba(255,255,255,0.03)"/>
  <!-- Pot bottom curve -->
  <ellipse cx="200" cy="380" rx="115" ry="16" fill="#1a1a18"/>
  <!-- Pot rim — thick 3D torus -->
  <ellipse cx="200" cy="172" rx="105" ry="32" fill="url(#potrim)" stroke="#555" stroke-width="1"/>
  <ellipse cx="200" cy="168" rx="100" ry="29" fill="#3a3a38"/>
  <ellipse cx="200" cy="165" rx="96" ry="27" fill="#333330" stroke="#444" stroke-width="0.5"/>
  <!-- Rim highlight -->
  <path d="M110,160 Q200,138 290,160" fill="none" stroke="rgba(255,255,255,0.1)" stroke-width="2"/>
  <!-- Inner pot wall visible (dark cavity) -->
  <ellipse cx="200" cy="168" rx="88" ry="24" fill="url(#potinner)"/>
  <!-- Inner shadow ring -->
  <ellipse cx="200" cy="170" rx="86" ry="22" fill="none" stroke="rgba(0,0,0,0.3)" stroke-width="4"/>
  <!-- Soil surface — slightly sunken -->
  <ellipse cx="200" cy="172" rx="80" ry="18" fill="url(#soil)"/>
  <!-- Soil texture — pebbles and clumps -->
  <circle cx="170" cy="170" r="4" fill="#5a4828" opacity="0.5"/>
  <circle cx="215" cy="175" r="5" fill="#4a3818" opacity="0.4"/>
  <circle cx="245" cy="171" r="3" fill="#5a4828" opacity="0.5"/>
  <circle cx="155" cy="174" r="2.5" fill="#4a3818" opacity="0.4"/>
  <circle cx="190" cy="168" r="2" fill="#6a5838" opacity="0.3"/>
  <circle cx="230" cy="168" r="3" fill="#4a3818" opacity="0.3"/>
  <ellipse cx="180" cy="173" rx="6" ry="2" fill="#3a2818" opacity="0.3"/>
  <!-- Disturbed soil — clue area -->
  <ellipse cx="225" cy="173" rx="22" ry="7" fill="#5a4020" opacity="0.55"/>
  <ellipse cx="228" cy="174" rx="15" ry="4" fill="#6a5030" opacity="0.4"/>

  <!-- Blade base shadow on soil -->
  <ellipse cx="200" cy="170" rx="38" ry="6" fill="rgba(0,0,0,0.35)"/>
</svg>
