<svg xmlns="http://www.w3.org/2000/svg" width="280" height="175">
  <defs>
    <radialGradient id="scrglow" cx="50%" cy="50%" r="60%">
      <stop offset="0%" stop-color="#0e2848"/>
      <stop offset="100%" stop-color="#060e20"/>
    </radialGradient>
    <radialGradient id="numglow" cx="50%" cy="50%" r="50%">
      <stop offset="0%" stop-color="rgba(0,255,100,0.08)"/>
      <stop offset="100%" stop-color="rgba(0,255,100,0)"/>
    </radialGradient>
  </defs>
  <rect width="280" height="175" rx="2" fill="url(#scrglow)"/>
  <!-- Scanline overlay -->
  <g opacity="0.04">
    <line x1="0" y1="10" x2="280" y2="10" stroke="#0f0" stroke-width="1"/>
    <line x1="0" y1="25" x2="280" y2="25" stroke="#0f0" stroke-width="1"/>
    <line x1="0" y1="40" x2="280" y2="40" stroke="#0f0" stroke-width="1"/>
    <line x1="0" y1="55" x2="280" y2="55" stroke="#0f0" stroke-width="1"/>
    <line x1="0" y1="70" x2="280" y2="70" stroke="#0f0" stroke-width="1"/>
    <line x1="0" y1="85" x2="280" y2="85" stroke="#0f0" stroke-width="1"/>
    <line x1="0" y1="100" x2="280" y2="100" stroke="#0f0" stroke-width="1"/>
    <line x1="0" y1="115" x2="280" y2="115" stroke="#0f0" stroke-width="1"/>
    <line x1="0" y1="130" x2="280" y2="130" stroke="#0f0" stroke-width="1"/>
    <line x1="0" y1="145" x2="280" y2="145" stroke="#0f0" stroke-width="1"/>
    <line x1="0" y1="160" x2="280" y2="160" stroke="#0f0" stroke-width="1"/>
  </g>
  <!-- Access granted badge -->
  <rect x="65" y="16" width="150" height="28" rx="4" fill="rgba(0,255,100,0.06)" stroke="rgba(0,255,100,0.15)" stroke-width="1"/>
  <text x="140" y="35" text-anchor="middle" fill="#5ba" font-size="14" font-family="monospace" font-weight="bold">ACCESS GRANTED</text>
  <!-- Number display — glowing box -->
  <ellipse cx="140" cy="100" rx="110" ry="45" fill="url(#numglow)"/>
  <rect x="35" y="58" width="210" height="84" rx="8" fill="rgba(0,255,100,0.03)" stroke="rgba(0,255,100,0.12)" stroke-width="1.5"/>
  <!-- Inner glow ring -->
  <rect x="40" y="63" width="200" height="74" rx="6" fill="none" stroke="rgba(0,255,100,0.05)" stroke-width="2"/>
  <!-- Big number with glow layers -->
  <text x="140" y="116" text-anchor="middle" fill="rgba(0,200,80,0.15)" font-size="56" font-weight="bold" font-family="monospace">1886</text>
  <text x="140" y="115" text-anchor="middle" fill="#5c8" font-size="54" font-weight="bold" font-family="monospace">1886</text>
  <text x="140" y="114" text-anchor="middle" fill="#8ea" font-size="52" font-weight="bold" font-family="monospace" opacity="0.4">1886</text>
  <!-- Small status text -->
  <text x="140" y="160" text-anchor="middle" fill="#2a4a5a" font-size="9" font-family="monospace">FILE #0042 — CLASSIFIED</text>
  <!-- Screen edge vignette -->
  <rect width="280" height="175" rx="2" fill="none" stroke="rgba(0,0,0,0.3)" stroke-width="6"/>
</svg>
