<svg xmlns="http://www.w3.org/2000/svg" width="190" height="110">
  <!-- Shadow behind unit -->
  <rect x="6" y="6" width="184" height="104" rx="1" fill="rgba(0,0,0,0.1)"/>
  <!-- Back panel -->
  <rect x="0" y="0" width="184" height="104" rx="1" fill="#c8b898"/>
  <!-- Shelf 1 top surface (3D) -->
  <polygon points="2,38 182,38 180,42 4,42" fill="#d0b888"/>
  <rect x="2" y="42" width="180" height="5" fill="#c0a878" stroke="#a88858" stroke-width="0.5"/>
  <!-- Shelf 2 top surface (3D) -->
  <polygon points="2,76 182,76 180,80 4,80" fill="#d0b888"/>
  <rect x="2" y="80" width="180" height="5" fill="#c0a878" stroke="#a88858" stroke-width="0.5"/>
  <!-- Books top shelf -->
  <rect x="8" y="6" width="14" height="32" fill="#8b2020" rx="1"/>
  <rect x="24" y="10" width="11" height="28" fill="#1a4a6a" rx="1"/>
  <rect x="37" y="4" width="15" height="34" fill="#2a6a2a" rx="1"/>
  <rect x="54" y="8" width="9" height="30" fill="#6a4a1a" rx="1"/>
  <rect x="65" y="6" width="13" height="32" fill="#4a2a5a" rx="1"/>
  <rect x="80" y="12" width="11" height="26" fill="#aa4422" rx="1"/>
  <rect x="93" y="7" width="15" height="31" fill="#2a3a5a" rx="1"/>
  <rect x="110" y="10" width="9" height="28" fill="#5a5a1a" rx="1"/>
  <!-- White vase -->
  <ellipse cx="135" cy="30" rx="9" ry="8" fill="#f0ece4" stroke="#ddd" stroke-width="0.5"/>
  <rect x="128" y="10" width="14" height="20" rx="4" fill="#f4f0e8" stroke="#ddd" stroke-width="0.5"/>
  <!-- Small decor -->
  <circle cx="158" cy="26" r="7" fill="#eee" stroke="#ccc" stroke-width="0.5"/>
  <rect x="170" y="8" width="8" height="30" fill="#884422" rx="1"/>
  <!-- Books bottom shelf -->
  <rect x="8" y="48" width="15" height="28" fill="#1a5a3a" rx="1"/>
  <rect x="25" y="52" width="11" height="24" fill="#5a2a1a" rx="1"/>
  <rect x="38" y="46" width="13" height="30" fill="#3a3a6a" rx="1"/>
  <rect x="53" y="50" width="17" height="26" fill="#6a1a3a" rx="1"/>
  <rect x="72" y="48" width="11" height="28" fill="#4a5a2a" rx="1"/>
  <rect x="85" y="52" width="15" height="24" fill="#1a3a5a" rx="1"/>
  <!-- Photo frame on lower shelf -->
  <rect x="114" y="48" width="22" height="28" fill="#c8b898" rx="1" stroke="#a08060" stroke-width="0.5"/>
  <rect x="116" y="50" width="18" height="24" fill="#e8e0d0" rx="1"/>
  <rect x="142" y="50" width="11" height="26" fill="#5a1a4a" rx="1"/>
  <rect x="156" y="46" width="15" height="30" fill="#2a5a5a" rx="1"/>
  <!-- Shelf front edge highlight -->
  <line x1="2" y1="42" x2="182" y2="42" stroke="rgba(255,255,255,0.08)" stroke-width="0.5"/>
  <line x1="2" y1="80" x2="182" y2="80" stroke="rgba(255,255,255,0.08)" stroke-width="0.5"/>
</svg>
