<svg xmlns="http://www.w3.org/2000/svg" width="145" height="200">
  <defs>
    <linearGradient id="cabf5" x1="0" y1="0" x2="1" y2="0">
      <stop offset="0%" stop-color="#c8a060"/>
      <stop offset="50%" stop-color="#d4ac68"/>
      <stop offset="100%" stop-color="#b89050"/>
    </linearGradient>
    <linearGradient id="cabs5" x1="0" y1="0" x2="1" y2="0">
      <stop offset="0%" stop-color="#a88040"/>
      <stop offset="100%" stop-color="#987038"/>
    </linearGradient>
    <linearGradient id="cabint5" x1="0" y1="0" x2="0" y2="1">
      <stop offset="0%" stop-color="#3a2810"/>
      <stop offset="100%" stop-color="#2a1a08"/>
    </linearGradient>
  </defs>
  <ellipse cx="68" cy="196" rx="60" ry="5" fill="rgba(0,0,0,0.15)"/>
  <polygon points="125,2 140,8 140,192 125,198" fill="url(#cabs5)"/>
  <rect x="2" y="2" width="123" height="196" rx="2" fill="url(#cabf5)" stroke="#a07838" stroke-width="1"/>
  <!-- Upper glass doors (both closed) -->
  <rect x="8" y="8" width="55" height="78" rx="2" fill="#b89050" stroke="#987038" stroke-width="1"/>
  <rect x="67" y="8" width="55" height="78" rx="2" fill="#b89050" stroke="#987038" stroke-width="1"/>
  <rect x="12" y="12" width="47" height="70" fill="#1a1818" rx="1"/>
  <rect x="71" y="12" width="47" height="70" fill="#1a1818" rx="1"/>
  <rect x="12" y="12" width="47" height="70" fill="rgba(180,200,210,0.08)" rx="1"/>
  <rect x="71" y="12" width="47" height="70" fill="rgba(180,200,210,0.08)" rx="1"/>
  <line x1="16" y1="76" x2="30" y2="16" stroke="rgba(255,255,255,0.06)" stroke-width="2"/>
  <line x1="75" y1="76" x2="89" y2="16" stroke="rgba(255,255,255,0.04)" stroke-width="1.5"/>
  <rect x="56" y="40" width="4" height="12" rx="1.5" fill="#bbb"/>
  <rect x="68" y="40" width="4" height="12" rx="1.5" fill="#bbb"/>
  <!-- Middle shelf divider -->
  <rect x="4" y="90" width="119" height="8" fill="#a07838"/>
  <rect x="4" y="90" width="119" height="2" fill="rgba(255,255,255,0.05)"/>
  <rect x="20" y="94" width="6" height="3" rx="1" fill="#8a6a30"/>
  <rect x="50" y="94" width="28" height="3" rx="1" fill="#8a6a30"/>
  <rect x="100" y="94" width="6" height="3" rx="1" fill="#8a6a30"/>
  <!-- Left lower door (closed) -->
  <rect x="8" y="104" width="55" height="88" rx="2" fill="#b89050" stroke="#987038" stroke-width="1"/>
  <rect x="14" y="110" width="43" height="76" fill="rgba(0,0,0,0.06)" rx="1"/>
  <circle cx="56" cy="148" r="4" fill="#bbb" stroke="#aaa" stroke-width="0.8"/>
  <!-- Key in keyhole -->
  <ellipse cx="56" cy="165" rx="2.5" ry="4" fill="#444"/>
  <circle cx="56" cy="160" r="4" fill="none" stroke="#d0a840" stroke-width="2"/>
  <rect x="55" y="163" width="2" height="6" fill="#d0a840"/>
  <!-- Lower right: open interior -->
  <rect x="67" y="104" width="55" height="88" rx="2" fill="url(#cabint5)" stroke="#5a3a18" stroke-width="0.5"/>
  <rect x="69" y="140" width="51" height="2" fill="#5a3a18"/>
  <rect x="67" y="104" width="55" height="4" fill="rgba(0,0,0,0.2)"/>
  <!-- Notes on shelf -->
  <rect x="78" y="130" width="20" height="7" rx="0.5" fill="#f4e8c8" stroke="#d4c498" stroke-width="0.3"/>
  <line x1="81" y1="132" x2="94" y2="132" stroke="#bba878" stroke-width="0.3"/>
  <line x1="81" y1="134" x2="91" y2="134" stroke="#bba878" stroke-width="0.3"/>
  <!-- Lower right door swung open (3D perspective) -->
  <polygon points="122,104 130,108 130,190 122,194" fill="#c89858" stroke="#a07838" stroke-width="0.5"/>
  <polygon points="130,104 136,106 136,198 130,194" fill="#b89050" stroke="#987038" stroke-width="0.5"/>
  <circle cx="128" cy="148" r="2" fill="#bbb"/>
  <line x1="3" y1="3" x2="124" y2="3" stroke="rgba(255,255,255,0.06)" stroke-width="0.8"/>
</svg>
