<svg xmlns="http://www.w3.org/2000/svg" width="145" height="200">
  <defs>
    <linearGradient id="cabf" x1="0" y1="0" x2="1" y2="0">
      <stop offset="0%" stop-color="#c8a060"/>
      <stop offset="50%" stop-color="#d4ac68"/>
      <stop offset="100%" stop-color="#b89050"/>
    </linearGradient>
    <linearGradient id="cabs" x1="0" y1="0" x2="1" y2="0">
      <stop offset="0%" stop-color="#a88040"/>
      <stop offset="100%" stop-color="#987038"/>
    </linearGradient>
  </defs>
  <!-- Floor shadow -->
  <ellipse cx="68" cy="196" rx="60" ry="5" fill="rgba(0,0,0,0.15)"/>
  <!-- Side panel (3D depth) -->
  <polygon points="125,2 140,8 140,192 125,198" fill="url(#cabs)"/>
  <!-- Front face -->
  <rect x="2" y="2" width="123" height="196" rx="2" fill="url(#cabf)" stroke="#a07838" stroke-width="1"/>
  <!-- Upper glass doors -->
  <rect x="8" y="8" width="55" height="78" rx="2" fill="#b89050" stroke="#987038" stroke-width="1"/>
  <rect x="67" y="8" width="55" height="78" rx="2" fill="#b89050" stroke="#987038" stroke-width="1"/>
  <!-- Glass panes with reflection -->
  <rect x="12" y="12" width="47" height="70" fill="rgba(180,200,210,0.12)" rx="1"/>
  <rect x="71" y="12" width="47" height="70" fill="rgba(180,200,210,0.12)" rx="1"/>
  <line x1="16" y1="16" x2="16" y2="76" stroke="rgba(255,255,255,0.06)" stroke-width="1.5"/>
  <line x1="75" y1="16" x2="75" y2="76" stroke="rgba(255,255,255,0.06)" stroke-width="1.5"/>
  <!-- Glass handles -->
  <rect x="56" y="40" width="4" height="12" rx="1.5" fill="#bbb"/>
  <rect x="68" y="40" width="4" height="12" rx="1.5" fill="#bbb"/>
  <!-- Middle shelf divider -->
  <rect x="4" y="90" width="119" height="8" fill="#a07838"/>
  <rect x="4" y="90" width="119" height="2" fill="rgba(255,255,255,0.05)"/>
  <!-- Decorative trim -->
  <rect x="20" y="94" width="6" height="3" rx="1" fill="#8a6a30"/>
  <rect x="50" y="94" width="28" height="3" rx="1" fill="#8a6a30"/>
  <rect x="100" y="94" width="6" height="3" rx="1" fill="#8a6a30"/>
  <!-- Lower doors -->
  <rect x="8" y="104" width="55" height="88" rx="2" fill="#b89050" stroke="#987038" stroke-width="1"/>
  <rect x="67" y="104" width="55" height="88" rx="2" fill="#b89050" stroke="#987038" stroke-width="1"/>
  <!-- Lower panels inset -->
  <rect x="14" y="110" width="43" height="76" fill="rgba(0,0,0,0.06)" rx="1"/>
  <rect x="73" y="110" width="43" height="76" fill="rgba(0,0,0,0.06)" rx="1"/>
  <!-- Knobs -->
  <circle cx="56" cy="148" r="4" fill="#bbb" stroke="#aaa" stroke-width="0.8"/>
  <circle cx="56" cy="148" r="1.5" fill="#999"/>
  <circle cx="72" cy="148" r="4" fill="#bbb" stroke="#aaa" stroke-width="0.8"/>
  <circle cx="72" cy="148" r="1.5" fill="#999"/>
  <!-- Keyhole -->
  <ellipse cx="56" cy="165" rx="2.5" ry="4" fill="#555"/>
  <rect x="55" y="167" width="2" height="5" fill="#555"/>
  <!-- Top edge highlight -->
  <line x1="3" y1="3" x2="124" y2="3" stroke="rgba(255,255,255,0.06)" stroke-width="0.8"/>
</svg>
