<svg xmlns="http://www.w3.org/2000/svg" width="145" height="200">
  <defs>
    <linearGradient id="cabf" x1="0" y1="0" x2="1" y2="0">
      <stop offset="0%"  stop-color="#a07a38"/>
      <stop offset="20%" stop-color="#c8a060"/>
      <stop offset="55%" stop-color="#d8b272"/>
      <stop offset="85%" stop-color="#b88c48"/>
      <stop offset="100%" stop-color="#8a6628"/>
    </linearGradient>
    <linearGradient id="cabs" x1="0" y1="0" x2="1" y2="0">
      <stop offset="0%"  stop-color="#a88040"/>
      <stop offset="100%" stop-color="#6a4820"/>
    </linearGradient>
    <linearGradient id="cabDoor" x1="0" y1="0" x2="0" y2="1">
      <stop offset="0%"  stop-color="#c8a060"/>
      <stop offset="100%" stop-color="#a07838"/>
    </linearGradient>
    <linearGradient id="glassPane" x1="0" y1="0" x2="1" y2="1">
      <stop offset="0%"  stop-color="rgba(200,220,230,0.25)"/>
      <stop offset="50%" stop-color="rgba(140,160,180,0.08)"/>
      <stop offset="100%" stop-color="rgba(60,80,100,0.15)"/>
    </linearGradient>
    <linearGradient id="cabInterior" x1="0" y1="0" x2="0" y2="1">
      <stop offset="0%"  stop-color="#3a2818"/>
      <stop offset="100%" stop-color="#1a1208"/>
    </linearGradient>
    <radialGradient id="brassKnob" cx="35%" cy="35%" r="65%">
      <stop offset="0%"  stop-color="#fff4c8"/>
      <stop offset="55%" stop-color="#c89030"/>
      <stop offset="100%" stop-color="#6a4818"/>
    </radialGradient>
  </defs>

  <ellipse cx="68" cy="196" rx="60" ry="5" fill="rgba(0,0,0,0.22)"/>
  <polygon points="125,2 140,8 140,192 125,198" fill="url(#cabs)"/>
  <line x1="125" y1="2" x2="125" y2="198" stroke="rgba(0,0,0,0.25)" stroke-width="0.8"/>
  <rect x="2" y="2" width="123" height="196" rx="2" fill="url(#cabf)" stroke="#6a4820" stroke-width="1"/>
  <rect x="0" y="0" width="127" height="6" fill="#8a6628"/>
  <rect x="0" y="0" width="127" height="2" fill="#d4b472"/>

  <!-- Both upper glass doors closed -->
  <rect x="8" y="10" width="55" height="78" rx="2" fill="url(#cabDoor)" stroke="#6a4820" stroke-width="1.2"/>
  <rect x="67" y="10" width="55" height="78" rx="2" fill="url(#cabDoor)" stroke="#6a4820" stroke-width="1.2"/>
  <rect x="12" y="14" width="47" height="70" fill="#151310" rx="1"/>
  <rect x="71" y="14" width="47" height="70" fill="#151310" rx="1"/>
  <line x1="12" y1="44" x2="59" y2="44" stroke="rgba(120,90,60,0.35)" stroke-width="0.8"/>
  <line x1="71" y1="44" x2="118" y2="44" stroke="rgba(120,90,60,0.35)" stroke-width="0.8"/>
  <rect x="12" y="14" width="47" height="70" fill="url(#glassPane)" rx="1"/>
  <rect x="71" y="14" width="47" height="70" fill="url(#glassPane)" rx="1"/>
  <path d="M14 78 L30 16" stroke="rgba(255,255,255,0.22)" stroke-width="2" fill="none" opacity="0.7"/>
  <path d="M73 78 L89 16" stroke="rgba(255,255,255,0.18)" stroke-width="1.5" fill="none" opacity="0.7"/>
  <line x1="35" y1="14" x2="35" y2="84" stroke="#6a4820" stroke-width="1"/>
  <line x1="12" y1="49" x2="59" y2="49" stroke="#6a4820" stroke-width="0.8"/>
  <line x1="94" y1="14" x2="94" y2="84" stroke="#6a4820" stroke-width="1"/>
  <line x1="71" y1="49" x2="118" y2="49" stroke="#6a4820" stroke-width="0.8"/>
  <rect x="55" y="42" width="3" height="12" rx="1.2" fill="url(#brassKnob)"/>
  <rect x="69" y="42" width="3" height="12" rx="1.2" fill="url(#brassKnob)"/>

  <!-- Middle shelf divider -->
  <rect x="4" y="90" width="119" height="10" fill="#8a6628"/>
  <rect x="4" y="90" width="119" height="2" fill="rgba(255,240,200,0.3)"/>
  <rect x="4" y="98" width="119" height="2" fill="rgba(0,0,0,0.25)"/>
  <rect x="18" y="93" width="8" height="4" rx="1" fill="#6a4820"/>
  <rect x="40" y="93" width="45" height="4" rx="1" fill="#6a4820"/>
  <rect x="99" y="93" width="8" height="4" rx="1" fill="#6a4820"/>
  <circle cx="32" cy="95" r="1.2" fill="url(#brassKnob)"/>
  <circle cx="93" cy="95" r="1.2" fill="url(#brassKnob)"/>

  <!-- Lower LEFT door closed, with KEY in keyhole -->
  <rect x="8" y="104" width="55" height="88" rx="2" fill="url(#cabDoor)" stroke="#6a4820" stroke-width="1.2"/>
  <rect x="13" y="109" width="45" height="78" rx="2" fill="#6a4820"/>
  <rect x="15" y="111" width="41" height="74" rx="1.5" fill="url(#cabDoor)" stroke="rgba(255,230,180,0.25)" stroke-width="0.5"/>
  <circle cx="56" cy="148" r="4.5" fill="url(#brassKnob)" stroke="#6a4818" stroke-width="0.6"/>
  <circle cx="54.5" cy="146.5" r="1.2" fill="#fff4c8" opacity="0.85"/>
  <!-- Escutcheon plate -->
  <rect x="51.5" y="161" width="9" height="12" rx="1.5" fill="url(#brassKnob)" stroke="#6a4818" stroke-width="0.4"/>
  <!-- Brass key inserted -->
  <circle cx="56" cy="158" r="3.5" fill="none" stroke="#d4ac4a" stroke-width="2"/>
  <circle cx="56" cy="158" r="1.2" fill="#1a1208"/>
  <rect x="55.2" y="161" width="1.6" height="9" fill="#d4ac4a"/>
  <rect x="55.2" y="167" width="3" height="1.5" fill="#d4ac4a"/>
  <rect x="55.2" y="170" width="2.5" height="1" fill="#d4ac4a"/>

  <!-- Lower RIGHT: door swung open, interior with notes -->
  <rect x="67" y="104" width="55" height="88" rx="2" fill="url(#cabInterior)" stroke="#5a3a18" stroke-width="0.5"/>
  <rect x="69" y="140" width="51" height="2" fill="#3a2818"/>
  <rect x="67" y="104" width="55" height="4" fill="rgba(0,0,0,0.35)"/>
  <!-- Notes/papers on interior shelf -->
  <g>
    <rect x="76" y="124" width="22" height="14" rx="0.5" fill="#f4e8c8" stroke="#bba878" stroke-width="0.4" transform="rotate(-4 87 131)"/>
    <line x1="79" y1="128" x2="94" y2="128" stroke="#a08850" stroke-width="0.3" transform="rotate(-4 87 131)"/>
    <line x1="79" y1="131" x2="92" y2="131" stroke="#a08850" stroke-width="0.3" transform="rotate(-4 87 131)"/>
    <line x1="79" y1="134" x2="93" y2="134" stroke="#a08850" stroke-width="0.3" transform="rotate(-4 87 131)"/>
  </g>
  <g transform="rotate(6 100 134)">
    <rect x="92" y="128" width="20" height="12" rx="0.5" fill="#fcf2d8" stroke="#bba878" stroke-width="0.4"/>
    <line x1="95" y1="131" x2="108" y2="131" stroke="#a08850" stroke-width="0.3"/>
    <line x1="95" y1="134" x2="106" y2="134" stroke="#a08850" stroke-width="0.3"/>
  </g>
  <!-- Right door swung open (perspective) -->
  <polygon points="122,104 132,108 132,190 122,194" fill="url(#cabDoor)" stroke="#6a4820" stroke-width="0.5"/>
  <polygon points="132,104 138,106 138,196 132,194" fill="#a07838"/>
  <polygon points="124,109 130,111 130,188 124,191" fill="#6a4820"/>
  <circle cx="128" cy="148" r="2" fill="url(#brassKnob)"/>

  <line x1="3" y1="6" x2="124" y2="6" stroke="rgba(255,240,200,0.35)" stroke-width="0.6"/>
  <rect x="0" y="192" width="127" height="7" fill="#6a4820"/>
  <rect x="0" y="192" width="127" height="1.5" fill="rgba(255,240,200,0.18)"/>
</svg>
