<svg xmlns="http://www.w3.org/2000/svg" width="200" height="120">
  <defs>
    <linearGradient id="dsk" x1="0" y1="0" x2="1" y2="0">
      <stop offset="0%" stop-color="#8a6a3a"/>
      <stop offset="30%" stop-color="#a07a48"/>
      <stop offset="100%" stop-color="#7a5a30"/>
    </linearGradient>
    <linearGradient id="dsks" x1="0" y1="0" x2="1" y2="0">
      <stop offset="0%" stop-color="#6a4a22"/>
      <stop offset="100%" stop-color="#5a3a1a"/>
    </linearGradient>
  </defs>
  <!-- Floor shadow -->
  <ellipse cx="100" cy="116" rx="80" ry="5" fill="rgba(0,0,0,0.15)"/>
  <!-- Left leg -->
  <rect x="8" y="40" width="8" height="75" fill="#7a5a30"/>
  <!-- Right leg -->
  <rect x="174" y="40" width="8" height="75" fill="#7a5a30"/>
  <!-- Side panel (3D depth) -->
  <polygon points="182" y="4" fill="url(#dsks)"/>
  <!-- Cross bar -->
  <rect x="12" y="80" width="166" height="5" fill="#6a4a28" rx="1"/>
  <!-- Desktop surface top (3D) -->
  <polygon points="0,32 190,32 194,38 4,38" fill="#b08a58"/>
  <!-- Desktop surface front -->
  <rect x="0" y="38" width="194" height="6" fill="url(#dsk)" stroke="#6a4a28" stroke-width="0.5"/>
  <!-- Desktop top plane -->
  <rect x="0" y="24" width="194" height="10" fill="#a07a48" rx="1"/>
  <!-- Top surface highlight -->
  <line x1="4" y1="26" x2="190" y2="26" stroke="rgba(255,255,255,0.06)" stroke-width="1"/>
  <!-- Drawer -->
  <rect x="120" y="44" width="60" height="28" rx="2" fill="#906a38" stroke="#7a5a30" stroke-width="0.8"/>
  <rect x="140" y="56" width="20" height="4" rx="1.5" fill="#bbb"/>
</svg>
