<svg xmlns="http://www.w3.org/2000/svg" width="130" height="260">
  <defs>
    <linearGradient id="drhall" x1="0" y1="0" x2="0" y2="1">
      <stop offset="0%" stop-color="#f8f0d8"/>
      <stop offset="60%" stop-color="#e8d8b8"/>
      <stop offset="100%" stop-color="#c8b898"/>
    </linearGradient>
    <linearGradient id="dropen" x1="0" y1="0" x2="1" y2="0">
      <stop offset="0%" stop-color="#7a4a28"/>
      <stop offset="100%" stop-color="#6a3a18"/>
    </linearGradient>
  </defs>
  <!-- Door frame -->
  <rect x="0" y="0" width="130" height="260" fill="#a89878"/>
  <rect x="4" y="2" width="122" height="256" fill="#988868"/>
  <!-- Bright hallway visible through opening -->
  <rect x="10" y="5" width="110" height="250" fill="url(#drhall)"/>
  <!-- Hallway floor -->
  <rect x="10" y="200" width="110" height="55" fill="#c8b898"/>
  <line x1="10" y1="200" x2="120" y2="200" stroke="#b8a888" stroke-width="0.5"/>
  <!-- Hallway far wall detail -->
  <rect x="40" y="30" width="50" height="80" rx="2" fill="rgba(0,0,0,0.04)" stroke="rgba(0,0,0,0.06)" stroke-width="0.5"/>
  <!-- Light glow from hallway -->
  <rect x="10" y="5" width="110" height="250" fill="rgba(255,255,200,0.08)"/>
  <!-- Door swung open to the left — 3D perspective foreshortened -->
  <polygon points="10,5 30,20 30,240 10,255" fill="url(#dropen)"/>
  <!-- Door panel detail on foreshortened door -->
  <polygon points="13,16 28,28 28,78 13,68" fill="#8a5a30" stroke="#6a4020" stroke-width="0.5" opacity="0.7"/>
  <polygon points="13,80 28,90 28,140 13,130" fill="#8a5a30" stroke="#6a4020" stroke-width="0.5" opacity="0.7"/>
  <polygon points="13,142 28,152 28,200 13,190" fill="#8a5a30" stroke="#6a4020" stroke-width="0.5" opacity="0.7"/>
  <!-- Door edge thickness -->
  <polygon points="30,20 34,22 34,238 30,240" fill="#5a3a18"/>
  <!-- Card reader on open door (barely visible) -->
  <rect x="15" y="108" width="5" height="12" rx="1" fill="#333" opacity="0.6"/>
  <!-- Green LED on card reader -->
  <circle cx="17" cy="115" r="1.5" fill="#0a0"/>
  <circle cx="17" cy="115" r="2.5" fill="rgba(0,200,0,0.15)"/>
  <!-- Floor light spill from hallway -->
  <polygon points="34,255 60,260 120,260 120,255" fill="rgba(255,255,200,0.06)"/>
  <!-- Frame shadows -->
  <line x1="10" y1="5" x2="10" y2="255" stroke="rgba(0,0,0,0.15)" stroke-width="2"/>
  <line x1="120" y1="5" x2="120" y2="255" stroke="rgba(0,0,0,0.08)" stroke-width="1"/>
</svg>
