<svg xmlns="http://www.w3.org/2000/svg" width="130" height="260">
  <defs>
    <linearGradient id="dr" x1="0" y1="0" x2="1" y2="0">
      <stop offset="0%" stop-color="#8a5a30"/>
      <stop offset="25%" stop-color="#a06a38"/>
      <stop offset="75%" stop-color="#9c6634"/>
      <stop offset="100%" stop-color="#7a4a28"/>
    </linearGradient>
  </defs>
  <!-- Door frame (recessed into wall) -->
  <rect x="0" y="0" width="130" height="260" fill="#a89878"/>
  <!-- Frame inner shadow -->
  <rect x="4" y="2" width="122" height="256" fill="#988868"/>
  <!-- Door surface -->
  <rect x="10" y="5" width="110" height="250" rx="1" fill="url(#dr)"/>
  <!-- Upper panel -->
  <rect x="22" y="16" width="86" height="75" rx="3" fill="#8a5a30" stroke="#6a4020" stroke-width="1.5"/>
  <rect x="27" y="21" width="76" height="65" fill="#956232" opacity="0.35" rx="2"/>
  <!-- Middle panel -->
  <rect x="22" y="100" width="86" height="70" rx="3" fill="#8a5a30" stroke="#6a4020" stroke-width="1.5"/>
  <rect x="27" y="105" width="76" height="60" fill="#956232" opacity="0.35" rx="2"/>
  <!-- Lower panel -->
  <rect x="22" y="180" width="86" height="60" rx="3" fill="#8a5a30" stroke="#6a4020" stroke-width="1.5"/>
  <rect x="27" y="185" width="76" height="50" fill="#956232" opacity="0.35" rx="2"/>
  <!-- Handle plate -->
  <rect x="92" y="140" width="20" height="14" rx="5" fill="#c8c0b0" stroke="#aaa" stroke-width="1"/>
  <ellipse cx="96" cy="147" rx="3" ry="3" fill="#999"/>
  <!-- Card reader -->
  <rect x="92" y="115" width="22" height="32" rx="3" fill="#444" stroke="#555" stroke-width="1"/>
  <rect x="95" y="119" width="16" height="4" rx="1" fill="#222"/>
  <!-- Card slot -->
  <rect x="97" y="128" width="12" height="2.5" rx="0.5" fill="#1a1a1a" stroke="#666" stroke-width="0.3"/>
  <!-- LED (red) -->
  <circle cx="103" cy="138" r="3" fill="#800" stroke="#555" stroke-width="0.5"/>
  <circle cx="103" cy="138" r="1.5" fill="#c00"/>
  <!-- Door edge highlight -->
  <line x1="11" y1="6" x2="11" y2="254" stroke="rgba(255,255,255,0.04)" stroke-width="1.5"/>
  <!-- Frame edge shadow -->
  <line x1="10" y1="5" x2="10" y2="255" stroke="rgba(0,0,0,0.15)" stroke-width="2"/>
  <line x1="120" y1="5" x2="120" y2="255" stroke="rgba(0,0,0,0.08)" stroke-width="1"/>
</svg>
