<svg xmlns="http://www.w3.org/2000/svg" width="110" height="80">
  <defs>
    <linearGradient id="lapBase" x1="0" y1="0" x2="0" y2="1">
      <stop offset="0%"  stop-color="#c0c0c0"/>
      <stop offset="50%" stop-color="#9a9a9a"/>
      <stop offset="100%" stop-color="#666"/>
    </linearGradient>
    <linearGradient id="lapLid" x1="0" y1="0" x2="0" y2="1">
      <stop offset="0%"  stop-color="#b8b8b8"/>
      <stop offset="100%" stop-color="#6a6a6a"/>
    </linearGradient>
    <linearGradient id="screen" x1="0" y1="0" x2="0" y2="1">
      <stop offset="0%"  stop-color="#1a3060"/>
      <stop offset="50%" stop-color="#0a1a40"/>
      <stop offset="100%" stop-color="#0a1030"/>
    </linearGradient>
    <radialGradient id="screenGlow" cx="50%" cy="50%" r="60%">
      <stop offset="0%"  stop-color="rgba(100,140,220,0.35)"/>
      <stop offset="100%" stop-color="rgba(100,140,220,0)"/>
    </radialGradient>
  </defs>

  <!-- Shadow under base -->
  <ellipse cx="55" cy="75" rx="46" ry="4" fill="rgba(0,0,0,0.3)"/>

  <!-- Base (3D trapezoid) -->
  <polygon points="10,55 100,55 96,72 14,72" fill="url(#lapBase)" stroke="#4a4a4a" stroke-width="0.6"/>
  <!-- Base front edge shadow -->
  <polygon points="14,72 96,72 94,74 16,74" fill="#3a3a3a"/>
  <!-- Base top plane -->
  <polygon points="12,55 98,55 96,58 14,58" fill="#d4d4d4"/>

  <!-- Keyboard area (recessed) -->
  <polygon points="20,58 90,58 87,69 23,69" fill="#2a2a2a" stroke="#1a1a1a" stroke-width="0.4"/>
  <!-- Keyboard keys grid -->
  <g fill="#4a4a4a" stroke="#1a1a1a" stroke-width="0.2">
    <rect x="22" y="59" width="6" height="2.2" rx="0.3"/>
    <rect x="29" y="59" width="6" height="2.2" rx="0.3"/>
    <rect x="36" y="59" width="6" height="2.2" rx="0.3"/>
    <rect x="43" y="59" width="6" height="2.2" rx="0.3"/>
    <rect x="50" y="59" width="6" height="2.2" rx="0.3"/>
    <rect x="57" y="59" width="6" height="2.2" rx="0.3"/>
    <rect x="64" y="59" width="6" height="2.2" rx="0.3"/>
    <rect x="71" y="59" width="6" height="2.2" rx="0.3"/>
    <rect x="78" y="59" width="6" height="2.2" rx="0.3"/>
    <rect x="22" y="62" width="6" height="2.2" rx="0.3"/>
    <rect x="29" y="62" width="6" height="2.2" rx="0.3"/>
    <rect x="36" y="62" width="6" height="2.2" rx="0.3"/>
    <rect x="43" y="62" width="6" height="2.2" rx="0.3"/>
    <rect x="50" y="62" width="6" height="2.2" rx="0.3"/>
    <rect x="57" y="62" width="6" height="2.2" rx="0.3"/>
    <rect x="64" y="62" width="6" height="2.2" rx="0.3"/>
    <rect x="71" y="62" width="6" height="2.2" rx="0.3"/>
    <rect x="78" y="62" width="6" height="2.2" rx="0.3"/>
    <rect x="22" y="65" width="14" height="2.2" rx="0.3"/>
    <rect x="37" y="65" width="36" height="2.2" rx="0.3"/>
    <rect x="74" y="65" width="10" height="2.2" rx="0.3"/>
  </g>
  <!-- Trackpad -->
  <rect x="40" y="68.3" width="30" height="2" rx="0.5" fill="#444" stroke="#222" stroke-width="0.3"/>

  <!-- Screen lid (angled) -->
  <polygon points="12,54 98,54 92,8 18,8" fill="url(#lapLid)" stroke="#333" stroke-width="1.2"/>
  <!-- Screen bezel -->
  <polygon points="17,50 93,50 88,13 22,13" fill="#0a0a0a"/>
  <!-- Screen display -->
  <polygon points="19,48 91,48 87,15 23,15" fill="url(#screen)"/>
  <!-- Screen glow overlay -->
  <polygon points="19,48 91,48 87,15 23,15" fill="url(#screenGlow)"/>
  <!-- Window frame on screen -->
  <rect x="30" y="22" width="50" height="20" rx="1" fill="rgba(255,255,255,0.06)" stroke="rgba(255,255,255,0.2)" stroke-width="0.5"/>
  <!-- Lock icon -->
  <rect x="51" y="28" width="8" height="7" rx="1" fill="none" stroke="#f4c060" stroke-width="0.7"/>
  <path d="M53 28 Q53 24 55 24 Q57 24 57 28" fill="none" stroke="#f4c060" stroke-width="0.7"/>
  <circle cx="55" cy="31.5" r="0.8" fill="#f4c060"/>
  <!-- LOCKED text -->
  <text x="55" y="40" text-anchor="middle" fill="#f4c060" font-size="3.5" font-family="monospace" font-weight="bold">LOCKED</text>
  <!-- Camera -->
  <circle cx="55" cy="10.5" r="1" fill="#1a1a1a" stroke="#333" stroke-width="0.3"/>
  <circle cx="55" cy="10.5" r="0.4" fill="#6a8ab0"/>
  <!-- Brand logo on lid (glowing dot) -->
  <circle cx="55" cy="32" r="0.6" fill="none"/>
  <!-- Hinge line -->
  <line x1="12" y1="54" x2="98" y2="54" stroke="#333" stroke-width="0.8"/>
  <!-- Lid top highlight -->
  <line x1="22" y1="11" x2="88" y2="11" stroke="rgba(255,255,255,0.25)" stroke-width="0.6"/>
</svg>
